<svg xmlns="http://www.w3.org/2000/svg" width="29" height="29" viewBox="0 0 29 29" fill="none">
<g filter="url(#filter0_d)">
<path d="M14.5 0C8.704 0 4 4.704 4 10.5C4 16.296 8.704 21 14.5 21H19.75V18.9H14.5C9.943 18.9 6.1 15.057 6.1 10.5C6.1 5.943 9.943 2.1 14.5 2.1C19.057 2.1 22.9 5.943 22.9 10.5V12.0015C22.9 12.831 22.1545 13.65 21.325 13.65C20.4955 13.65 19.75 12.831 19.75 12.0015V10.5C19.75 7.602 17.398 5.25 14.5 5.25C11.602 5.25 9.25 7.602 9.25 10.5C9.25 13.398 11.602 15.75 14.5 15.75C15.949 15.75 17.272 15.162 18.217 14.2065C18.8995 15.141 20.0755 15.75 21.325 15.75C23.3935 15.75 25 14.07 25 12.0015V10.5C25 4.704 20.296 0 14.5 0ZM14.5 13.65C12.757 13.65 11.35 12.243 11.35 10.5C11.35 8.757 12.757 7.35 14.5 7.35C16.243 7.35 17.65 8.757 17.65 10.5C17.65 12.243 16.243 13.65 14.5 13.65Z" fill="#626262"/>
</g>
<defs>
<filter id="filter0_d" x="0" y="0" width="29" height="29" filterUnits="userSpaceOnUse" color-interpolation-filters="sRGB">
<feFlood flood-opacity="0" result="BackgroundImageFix"/>
<feColorMatrix in="SourceAlpha" type="matrix" values="0 0 0 0 0 0 0 0 0 0 0 0 0 0 0 0 0 0 127 0"/>
<feOffset dy="4"/>
<feGaussianBlur stdDeviation="2"/>
<feColorMatrix type="matrix" values="0 0 0 0 0 0 0 0 0 0 0 0 0 0 0 0 0 0 0.25 0"/>
<feBlend mode="normal" in2="BackgroundImageFix" result="effect1_dropShadow"/>
<feBlend mode="normal" in="SourceGraphic" in2="effect1_dropShadow" result="shape"/>
</filter>
</defs>
</svg>