<svg xmlns="http://www.w3.org/2000/svg" width="22" height="22" viewBox="0 0 22 22" fill="none">
<path d="M11 0C4.92486 0 0 4.92486 0 11C0 17.0751 4.92486 22 11 22C17.0751 22 22 17.0751 22 11C22 4.92486 17.0751 0 11 0ZM7.04687 4.36938C7.27351 4.35602 7.47837 4.49148 7.63367 4.73193L9.13757 7.58397C9.29592 7.92192 9.20594 8.28379 8.96973 8.52526L8.28089 9.2141C8.23838 9.27236 8.2104 9.33797 8.20972 9.41013C8.47389 10.4327 9.2752 11.3759 9.98221 12.0245C10.6892 12.6732 11.449 13.5513 12.4354 13.7594C12.5573 13.7934 12.7067 13.8056 12.794 13.7245L13.5942 12.9094C13.8705 12.7 14.2701 12.5986 14.5651 12.7698H14.5785L17.2922 14.3717C17.6905 14.6214 17.7318 15.104 17.4466 15.3976L15.5775 17.252C15.3015 17.535 14.9348 17.6302 14.5785 17.6306C13.0028 17.5834 11.514 16.81 10.291 16.0153C8.28373 14.555 6.44246 12.7438 5.28651 10.5555C4.84317 9.63796 4.32238 8.46719 4.37208 7.44302C4.37651 7.05773 4.48076 6.68026 4.75209 6.43192L6.62123 4.56278C6.76683 4.43888 6.91088 4.37741 7.04687 4.36938Z" fill="#626262"/>
</svg>